<svg width="168" height="168" viewBox="0 0 168 168" fill="none" xmlns="http://www.w3.org/2000/svg">
<circle cx="84" cy="84" r="83.5" fill="#F9FCFF"/>
<circle cx="83.9998" cy="83.9996" r="79.774" fill="#F9FCFF" stroke="#F97E31"/>
<path d="M95.783 71.2343C96.5771 70.3839 97.0815 69.2254 97.0815 67.95C97.0815 65.2928 94.9353 63.167 92.3384 63.167C90.3639 63.167 85.8139 66.0899 83.9897 68.7152C82.1117 66.0899 77.5725 63.252 75.6839 63.252C73.087 63.252 70.9408 65.3778 70.9408 68.035C70.9408 69.2679 71.4022 70.3839 72.1534 71.2236H62.9677V82.6602H65.4787V104.832H102.544V82.6708H105.033V71.2343H95.783ZM92.3277 64.942C93.9373 64.942 95.2787 66.2706 95.2787 68.0456C95.2787 69.5443 94.227 70.8304 92.8535 71.0961H85.5886C85.1272 70.9579 84.9769 70.7985 84.9769 70.7028C84.9877 69.1935 90.3532 64.942 92.3277 64.942ZM75.6732 64.942C77.5511 64.942 83.0132 69.1935 83.0132 70.7028C83.0132 70.841 82.6912 70.9898 82.4659 71.0961H75.1473C73.7845 70.8304 72.7329 69.5443 72.7329 68.0456C72.7221 66.3556 74.0635 64.942 75.6732 64.942ZM78.6242 103.057H67.2601V82.6708H78.6242V103.057ZM78.6242 80.9915H64.7597V73.0199H78.6349L78.6242 80.9915ZM87.5738 103.057H80.4163V73.0093H87.5738V103.057ZM100.73 103.057H89.3659V82.6708H100.73V103.057ZM103.23 80.9915H89.3659V73.0199H103.241L103.23 80.9915Z" fill="#F97E31"/>
</svg>
